<?xml version="1.0" encoding="UTF-8" standalone="no"?>
<svg
   version="1.1"
   width="3162.2925652459976"
   height="628.5781512464858"
   viewBox="0 0 3162.2925652459976 628.5781512464858"
   id="svg1197"
   sodipodi:docname="black-logo-with-title.svg"
   inkscape:version="1.1.2 (0a00cf5339, 2022-02-04)"
   xmlns:inkscape="http://www.inkscape.org/namespaces/inkscape"
   xmlns:sodipodi="http://sodipodi.sourceforge.net/DTD/sodipodi-0.dtd"
   xmlns="http://www.w3.org/2000/svg"
   xmlns:svg="http://www.w3.org/2000/svg">
  <defs
     id="defs1201">
    <inkscape:path-effect
       effect="bspline"
       id="path-effect10208"
       is_visible="true"
       lpeversion="1"
       weight="33.333333"
       steps="2"
       helper_size="0"
       apply_no_weight="true"
       apply_with_weight="true"
       only_selected="false" />
    <inkscape:path-effect
       effect="bspline"
       id="path-effect10204"
       is_visible="true"
       lpeversion="1"
       weight="33.333333"
       steps="2"
       helper_size="0"
       apply_no_weight="true"
       apply_with_weight="true"
       only_selected="false" />
    <inkscape:path-effect
       effect="bspline"
       id="path-effect10200"
       is_visible="true"
       lpeversion="1"
       weight="33.333333"
       steps="2"
       helper_size="0"
       apply_no_weight="true"
       apply_with_weight="true"
       only_selected="false" />
    <inkscape:path-effect
       effect="bspline"
       id="path-effect10196"
       is_visible="true"
       lpeversion="1"
       weight="33.333333"
       steps="2"
       helper_size="0"
       apply_no_weight="true"
       apply_with_weight="true"
       only_selected="false" />
    <rect
       x="650.22838"
       y="418.77218"
       width="2177.8524"
       height="143.54551"
       id="rect8393" />
    <rect
       x="606.49348"
       y="481.33746"
       width="2089.8473"
       height="89.255176"
       id="rect3217" />
  </defs>
  <sodipodi:namedview
     id="namedview1199"
     pagecolor="#505050"
     bordercolor="#eeeeee"
     borderopacity="1"
     inkscape:pageshadow="0"
     inkscape:pageopacity="0"
     inkscape:pagecheckerboard="0"
     showgrid="false"
     inkscape:zoom="0.18723092"
     inkscape:cx="502.05382"
     inkscape:cy="891.94668"
     inkscape:window-width="1346"
     inkscape:window-height="706"
     inkscape:window-x="10"
     inkscape:window-y="52"
     inkscape:window-maximized="1"
     inkscape:current-layer="SvgjsG1160" />
  <rect
     fill="#ffffff"
     width="3162.2925652459976"
     height="628.5781512464858"
     id="rect1182" />
  <g
     transform="matrix(8.1146283,0,0,8.1146283,81.146283,81.146283)"
     id="g1195">
    <defs
       id="SvgjsDefs1158" />
    <g
       id="SvgjsG1160"
       featureKey="j5pGhi-0"
       transform="matrix(2.2259797,0,0,2.2259797,64.761022,-1.6295886)"
       fill="#000000">
      <path
         d="M 1.0059,14.541 V 13.2519 Q 1.16215,12.285103 1.4551187,11.679634 2.1387125,9.9999469 3.2910563,9.2186969 4.4434,8.4374469 5.2051562,8.4374469 q 0.5664063,0 1.2109375,0.3710937 l -0.71289,1.1523 Q 4.7950006,9.6288094 3.9014459,10.49795 q -0.8935547,0.869141 -1.2354,1.8945 -0.2539062,0.908203 -0.2539062,3.408203 v 3.623 h -1.4063 v -4.8828 z m 15.234459,1.0938 1.1523,0.61523 q -0.55664,1.123047 -1.308593,1.806641 -0.751953,0.683593 -1.6895,1.04 -0.937547,0.356406 -2.1191,0.35645 -2.6171879,0 -4.0917972,-1.713868 -1.4746094,-1.713867 -1.4746,-3.8721 0,-2.041015 1.25,-3.632812 Q 9.5411,8.2030909 12.207116,8.2030909 q 2.724609,0 4.365234,2.0800781 1.162109,1.464844 1.171875,3.652344 h -9.6191 q 0.039063,1.875 1.1914063,3.071289 1.1523437,1.196289 2.8417997,1.1963 0.820313,0 1.591797,-0.288086 0.771485,-0.288086 1.3135,-0.75684 0.542016,-0.468754 1.1768,-1.5234 z m 0,-2.8809 q -0.273437,-1.103516 -0.800781,-1.762695 -0.527344,-0.65918 -1.3965,-1.0645003 -0.869156,-0.4053203 -1.8262,-0.40527 -1.572265,0 -2.705078,1.0156253 -0.8203125,0.742187 -1.2402344,2.216797 H 16.240366 Z M 19.296877,8.75 h 1.4648 l 3.584,7.793 3.5547,-7.793 h 1.4746 l -4.9023,10.713 h -0.24414 z M 31.953106,4.326 q 0.46875,0 0.805664,0.3320313 0.336914,0.3320312 0.33691,0.8007799 -4e-6,0.4687488 -0.33691,0.80566 -0.336906,0.3369113 -0.80566,0.33691 -0.468754,-1.2e-6 -0.80078,-0.33691 -0.332026,-0.3369087 -0.33203,-0.80566 -4e-6,-0.4687512 0.33203,-0.8007799 0.332034,-0.3320288 0.80078,-0.33203 z m -0.6836,4.404 h 1.377 v 10.713 h -1.377 z m 9.609438,0.918 -0.87891,0.91797 q -1.113282,-1.0742187 -2.158203,-1.0742187 -0.673829,0 -1.152344,0.4394531 -0.478516,0.4394536 -0.47852,1.0448996 0,0.507813 0.40039,0.976563 0.390625,0.498047 1.650391,1.142578 1.542969,0.791016 2.089844,1.533203 0.537109,0.751953 0.537109,1.689453 0,1.308594 -0.922851,2.22168 -0.922852,0.913086 -2.3096,0.91309 -0.927735,0 -1.772461,-0.395508 -0.844727,-0.395508 -1.3916,-1.1084 l 0.86914,-0.98633 q 1.054687,1.191406 2.236328,1.191406 0.820312,0 1.401367,-0.532226 0.581055,-0.532227 0.58105,-1.2451 0,-0.595703 -0.380859,-1.054688 -0.38086,-0.458984 -1.7285,-1.1523 -1.455078,-0.732422 -1.972657,-1.474609 -0.527343,-0.722656 -0.527343,-1.660156 0,-1.2207034 0.834961,-2.0263675 0.834961,-0.8056641 2.0947,-0.80566 1.474609,0 2.978515,1.4453125 z m 2.9101,-5.322 q 0.46875,0 0.805664,0.3320313 0.336914,0.3320312 0.33691,0.8007799 -4e-6,0.4687488 -0.33691,0.80566 -0.336906,0.3369113 -0.80566,0.33691 -0.468754,-1.2e-6 -0.80078,-0.33691 -0.332026,-0.3369087 -0.33203,-0.80566 -4e-6,-0.4687512 0.33203,-0.8007799 0.332034,-0.3320288 0.80078,-0.33203 z m -0.6836,4.404 h 1.377 v 10.713 h -1.377 z m 9.287137,-0.527 q 2.470703,0 4.101563,1.7871094 1.474609,1.6406246 1.474609,3.8769526 0,2.236329 -1.5625,3.9111 -1.5625,1.674772 -4.0137,1.674801 -2.460937,0 -4.018555,-1.674805 -1.557617,-1.674805 -1.5576,-3.9111 0,-2.226563 1.47461,-3.8671877 1.630859,-1.796875 4.101562,-1.796875 z m 0,1.348 q -1.708984,0 -2.939453,1.269531 -1.230469,1.269532 -1.2305,3.0664 0,1.16211 0.561524,2.172852 0.561523,1.010742 1.5186,1.5527 0.957076,0.541958 2.0898,0.54199 1.152343,0 2.104492,-0.541992 0.952148,-0.541993 1.5088,-1.5527 0.556651,-1.010708 0.55664,-2.1729 0,-1.796875 -1.230469,-3.066407 -1.230469,-1.2695309 -2.9395,-1.2694996 z m 8.105428,5.8299 -0.01953,-1.1426 q -0.0293,-0.839844 0.06836,-1.425781 0.214844,-1.845703 0.9375,-2.705078 0.703125,-0.7519535 1.435547,-1.1621097 1.210937,-0.5175782 2.763672,-0.4882813 1.210937,0 2.24121,0.6103516 1.030274,0.6103515 1.4697,1.6406004 0.439427,1.030248 0.43945,3.2275 v 5.5078 h -1.3672 v -5.1074 q 0,-1.855469 -0.15625,-2.480469 -0.24414,-1.064453 -0.966796,-1.508789 -0.722657,-0.4443362 -2.1387,-0.4443403 -1.25,0 -2.226563,0.7226563 -0.976562,0.722656 -0.9082,1.9727 -0.185547,0.800781 -0.185547,2.919922 v 3.9258 h -1.3867 v -4.0625 z M 78.134728,4.609 h 1.3867 v 6.0645 q 0.830078,-1.1035156 1.831055,-1.6503906 1.000976,-0.546875 2.1729,-0.54688 1.210937,0 2.138672,0.6103515 0.927734,0.6103516 1.3672,1.6357001 0.439465,1.025348 0.43945,3.2324 v 5.5078 h -1.3672 v -5.1074 q 0,-1.855469 -0.15625,-2.480469 -0.253907,-1.064453 -0.927735,-1.59668 -0.673828,-0.5322261 -1.7676,-0.5322295 -1.25,0 -2.241211,0.8251955 -0.991211,0.825195 -1.3037,2.0459 -0.185547,0.78125 -0.185547,2.919922 v 3.9258 h -1.3867 V 4.6085197 Z M 90.888653,4.326 q 0.46875,0 0.805664,0.3320313 0.336914,0.3320312 0.33691,0.8007799 -4e-6,0.4687488 -0.33691,0.80566 -0.336906,0.3369113 -0.80566,0.33691 -0.468754,-1.2e-6 -0.80078,-0.33691 -0.332026,-0.3369087 -0.33203,-0.80566 -4e-6,-0.4687512 0.33203,-0.8007799 0.332034,-0.3320288 0.80078,-0.33203 z m -0.6836,4.404 h 1.377 v 10.713 h -1.377 z m 9.609438,0.918 -0.87891,0.91797 q -1.113282,-1.0742187 -2.158204,-1.0742187 -0.673828,0 -1.152343,0.4394531 -0.478516,0.4394536 -0.47852,1.0448996 0,0.507813 0.40039,0.976563 0.390625,0.498047 1.650391,1.142578 1.542969,0.791016 2.089844,1.533203 0.537109,0.751953 0.537109,1.689453 0,1.308594 -0.922851,2.22168 -0.922852,0.913086 -2.3096,0.91309 -0.927735,0 -1.772461,-0.395508 -0.844727,-0.395508 -1.3916,-1.1084 l 0.86914,-0.98633 q 1.054687,1.191406 2.236328,1.191406 0.820312,0 1.401367,-0.532226 0.581055,-0.532227 0.58105,-1.2451 0,-0.595703 -0.380859,-1.054688 -0.38086,-0.458984 -1.7285,-1.1523 -1.455079,-0.732422 -1.972657,-1.474609 -0.527343,-0.722656 -0.527343,-1.660156 0,-1.2207034 0.834961,-2.0263675 0.83496,-0.8056641 2.0947,-0.80566 1.474609,0 2.978515,1.4453125 z m 6.288999,8.2817 q -1.01562,0.546875 -1.99219,0.08789 -1.1914,-0.908204 -1.13281,-2.587891 v -4.5313 h 2.5391 V 9.7168 h -2.5488 V 4.541 h -1.3867 v 11.123 q -0.0195,1.171875 0.53711,2.148438 0.91797,1.552734 2.5,1.640625 0.83984,0.0293 1.91406,-0.38086 -0.16601,-0.410156 -0.42968,-1.142578 z m 7.68558,-9.7267 q 2.4707,0 4.10156,1.7871094 1.47461,1.6406246 1.47461,3.8769526 0,2.236329 -1.5625,3.9111 -1.5625,1.674772 -4.0137,1.674801 -2.46094,0 -4.01856,-1.674805 -1.55761,-1.674805 -1.5576,-3.9111 0,-2.226563 1.47461,-3.8671877 1.63086,-1.796875 4.10156,-1.796875 z m 0,1.348 q -1.70899,0 -2.93946,1.269531 -1.23047,1.269532 -1.2305,3.0664 0,1.16211 0.56153,2.172852 0.56152,1.010742 1.5186,1.5527 0.95707,0.541958 2.0898,0.54199 1.15234,0 2.10449,-0.541992 0.95215,-0.541993 1.5088,-1.5527 0.55665,-1.010708 0.55664,-2.1729 0,-1.796875 -1.23047,-3.066407 -1.23047,-1.2695309 -2.9395,-1.2694996 z m 7.58792,4.99 v -1.2891 q 0.15625,-0.966797 0.44922,-1.572266 0.6836,-1.6796871 1.83594,-2.4609371 1.15234,-0.78125 1.9141,-0.78125 0.56641,0 1.21094,0.3710937 l -0.71289,1.1523 q -0.90821,-0.3320312 -1.80176,0.5371094 -0.89356,0.869141 -1.2354,1.8945 -0.25391,0.908203 -0.25391,3.408203 v 3.623 h -1.4063 v -4.8828 z m 5.42965,-6.064 h 1.4551 l 3.6816,8.252 3.5742,-8.252 h 1.4746 l -6.3965,14.619 h -1.4551 l 2.0605,-4.7168 z"
         id="path1192" />
      <text
         xml:space="preserve"
         transform="matrix(0.0553618,0,0,0.0553618,-33.585671,-3.7603269)"
         id="text3215"
         style="font-style:normal;font-weight:normal;font-size:40px;line-height:1.25;font-family:sans-serif;white-space:pre;shape-inside:url(#rect3217);fill:#000000;fill-opacity:1;stroke:none" />
      <text
         xml:space="preserve"
         transform="matrix(0.0553618,0,0,0.0553618,-33.998977,-1.0603648)"
         id="text8391"
         style="font-style:normal;font-weight:normal;font-size:96px;line-height:1.25;font-family:sans-serif;white-space:pre;shape-inside:url(#rect8393);fill:#000000;fill-opacity:1;stroke:none"><tspan
           x="650.22852"
           y="503.70898"
           id="tspan10675">&quot;Yeah that just happened&quot;</tspan></text>
      <path
         style="fill:none;stroke:#000000;stroke-width:1.10724;stroke-linecap:butt;stroke-linejoin:miter;stroke-miterlimit:4;stroke-dasharray:none;stroke-opacity:1"
         d="m 69.233377,6.886008 c 0.978658,2.2612461 1.957286,4.522423 2.935886,6.783536"
         id="path10194"
         inkscape:path-effect="#path-effect10196"
         inkscape:original-d="m 69.233377,6.886008 c 0.978686,2.2612339 1.957311,4.522412 2.935886,6.783536" />
      <path
         style="fill:none;stroke:#000000;stroke-width:1.10724;stroke-linecap:butt;stroke-linejoin:miter;stroke-miterlimit:4;stroke-dasharray:none;stroke-opacity:1"
         d="m 73.033023,6.3146582 c -0.779914,1.0013242 -1.55982,2.0026386 -1.155593,2.879022 0.404228,0.8763838 1.992453,1.6277788 2.566463,2.5740718 0.57401,0.946293 0.133866,2.087425 -0.306275,3.228551"
         id="path10198"
         inkscape:path-effect="#path-effect10200"
         inkscape:original-d="m 73.033023,6.3146582 c -0.779854,1.0013709 -1.559758,2.0026871 -2.339722,3.0039473 1.588346,0.7514815 3.176571,1.5028775 4.764774,2.2542335 -0.440104,1.141232 -0.880247,2.282365 -1.320457,3.423464" />
      <path
         style="fill:none;stroke:#000000;stroke-width:1.10724;stroke-linecap:butt;stroke-linejoin:miter;stroke-miterlimit:4;stroke-dasharray:none;stroke-opacity:1"
         d="m 74.058717,4.4400882 c 1.406329,3.1041134 2.812627,6.2081578 4.218896,9.3121378"
         id="path10202"
         inkscape:path-effect="#path-effect10204"
         inkscape:original-d="m 74.058717,4.4400882 c 1.406356,3.1041013 2.81265,6.2081478 4.218896,9.3121378" />
      <path
         style="fill:none;stroke:#000000;stroke-width:1.10724;stroke-linecap:butt;stroke-linejoin:miter;stroke-miterlimit:4;stroke-dasharray:none;stroke-opacity:1"
         d="M 73.909699,7.9616247 C 74.930024,7.1277706 75.950341,6.293922 76.970653,5.4600785"
         id="path10206"
         inkscape:path-effect="#path-effect10208"
         inkscape:original-d="m 73.909699,7.9616247 c 1.020374,-0.8337936 2.040692,-1.667642 3.060954,-2.5015462" />
      <path
         d="m -20.997562,-1.1236123 c 0.431822,-0.4041411 1.1017,-0.398605 1.533522,0.00554 1.527985,1.43387046 2.961856,2.9784645 4.301611,4.6503907 0.60898,-0.7972098 1.301002,-1.66639 2.048387,-2.3750209 0.437358,-0.40967734 1.112772,-0.40967734 1.55013,0.00554 1.9155179,1.8269392 3.5376189,4.2407136 4.678072,6.5326919 1.1238441,2.2587613 1.8712284,4.5673486 1.8712284,6.1949856 0,7.064165 -5.5251074,13.032167 -12.4010424,13.032167 -6.953441,0 -12.401042,-5.973538 -12.401042,-13.037703 0,-2.125894 0.98544,-4.722362 2.513425,-7.2911493 1.544595,-2.6075407 3.725849,-5.3258047 6.305709,-7.7174343 z m 3.676023,22.7315533 c 1.400654,0 2.640758,-0.387532 3.808892,-1.162598 2.330731,-1.627636 2.95632,-4.88291 1.555666,-7.440625 -0.249128,-0.498256 -0.885788,-0.531473 -1.24564,-0.110724 l -1.395117,1.622101 c -0.365388,0.42075 -1.024194,0.409677 -1.367437,-0.02768 -0.913469,-1.162598 -2.546642,-3.238665 -3.476721,-4.417871 -0.348779,-0.4428946 -1.01312,-0.4484308 -1.367436,-0.0055 -1.871229,2.352876 -2.812379,3.836572 -2.812379,5.502962 0.0055,3.792283 2.806843,6.039972 6.300172,6.039972 z"
         id="path10389"
         style="stroke-width:0.0553618" />
    </g>
  </g>
</svg>
