<svg version="1.2" xmlns="http://www.w3.org/2000/svg" viewBox="0 0 500 500" width="500" height="500">
	<title>Black logo - no background-svg</title>
	<style>
		.s0 { fill: #000000 } 
	</style>
	<g id="Layer">
		<g id="SvgjsG1159">
			<g id="Layer">
				<g id="Layer">
				</g>
			</g>
		</g>
		<g id="SvgjsG1160">
		</g>
		<path id="Layer copy" class="s0" d="m455.4 410.2c-11.1-4.6-22.8-6.4-35.1-8.2-12.3-1.1-25.2-2.3-37.5-2.3-24.6 0.6-49.2 2.9-73.8 7.6-48.6 8.8-96.1 24.6-143 41.6-12.3 4.7-25.1 9.4-37.4 13.5-6.5 2.3-12.9 4.7-19.4 6.4-2.9 0.6-5.8 1.2-8.8 2.4l38.7-73.3c0.6-1.1 1.2-2.3 1.8-2.9 1.1-1.2 2.3-2.3 3.5-2.9 21.6-13.5 43.3-25.8 64.4-40.4 27.5-19.4 52.1-42.2 73.2-68 2.4-2.3 25.8-29.3 46.3-79.7 0.6-0.5 0.6-1.1 1.2-2.3 0-0.6 0-0.6 0.6-1.2 4.6-12.3 9.3-26.3 14-41.6l-60.9 3.6c0 0 64.4-22.3 70.3-45.1 0.6-1.2 0.6-3.6 1.2-4.7 2.9-12.3 5.8-26.4 9.3-38.1 0.6-5.9 9.4-31.6 20.5-48 3-4.1-1.7-10-6.4-9.4-20.5 0.6-59.2 5.3-94.3 12.9-17.6 7-38.7 14-57.4 24-89.6 46.9-143 118.9-151.7 221.4-2.4 29.3 3.5 58.6 13.4 86.1 1.2 2.4 3 6.5 8.8-0.6 11.7-48.6 29.3-96.6 55.1-139.4 32.8-53.9 73.2-99.6 127.1-134.1 10-6.5 19.9-11.7 29.9-17.6 0.6 0.6 0 1.8-0.6 2.3l-0.6 0.6c-28.7 17.6-52.7 40.5-74.4 66.2-36.3 43.4-64.4 91.4-87.3 143-27.5 62.1-46.8 127.1-53.3 195 0 1.2 0.6 1.8 1.2 2.4 0.6 0.6 0.6 1.1 1.2 1.7 9.3 4.7 21.6 1.2 31.6-1.1q16.7-4.4 33.4-10.6c23.4-8.2 46.8-15.8 70.3-23.4 46.3-14.1 93.7-25.2 142.3-28.1 13.5-0.6 27.6-1.2 41-1.2 14.1 0 28.1 2.3 41.6 1.7 1.8 0 4.7-6.4 0-8.2z"/>
		<g id="Layer copy 2">
		</g>
	</g>
</svg>