<?xml version="1.0" encoding="UTF-8" standalone="no"?>
<svg
   version="1.2"
   viewBox="0 0 500 500"
   width="500"
   height="500"
   id="svg11623"
   sodipodi:docname="quill.svg"
   inkscape:version="1.1.2 (0a00cf5339, 2022-02-04)"
   inkscape:export-filename="/home/foxmoss/Projects/RevisionistHistory/images/quill.png"
   inkscape:export-xdpi="100"
   inkscape:export-ydpi="100"
   xmlns:inkscape="http://www.inkscape.org/namespaces/inkscape"
   xmlns:sodipodi="http://sodipodi.sourceforge.net/DTD/sodipodi-0.dtd"
   xmlns="http://www.w3.org/2000/svg"
   xmlns:svg="http://www.w3.org/2000/svg">
  <defs
     id="defs11627" />
  <sodipodi:namedview
     id="namedview11625"
     pagecolor="#505050"
     bordercolor="#eeeeee"
     borderopacity="1"
     inkscape:pageshadow="0"
     inkscape:pageopacity="0"
     inkscape:pagecheckerboard="0"
     showgrid="false"
     inkscape:zoom="1.028"
     inkscape:cx="214.98054"
     inkscape:cy="242.2179"
     inkscape:window-width="1346"
     inkscape:window-height="688"
     inkscape:window-x="10"
     inkscape:window-y="70"
     inkscape:window-maximized="1"
     inkscape:current-layer="svg11623" />
  <title
     id="title11610">Black logo - no background-svg</title>
  <style
     id="style11612">
		.s0 { fill: #000000 } 
	</style>
  <path
     d="m 188.50126,-19.534213 c 7.8,-7.3 19.9,-7.2 27.7,0.10007 27.59999,25.8999996 53.5,53.800001 77.7,84 11,-14.399999 23.49999,-30.099999 37.00001,-42.899998 7.89999,-7.400001 20.09999,-7.400001 27.99999,0.100069 34.6,33 63.9,76.600002 84.50001,118.000002 20.29999,40.8 33.79999,82.50001 33.79999,111.90001 0,127.6 -99.8,235.40001 -224,235.40001 -125.59999,0 -224.000003,-107.9 -224.000003,-235.5 0,-38.40002 17.800001,-85.30002 45.399991,-131.70002 27.900022,-47.100003 67.300002,-96.2 113.900012,-139.400003 z m 66.4,410.600013 c 25.30001,0 47.7,-6.99999 68.8,-21.00001 42.09999,-29.39999 53.40001,-88.19999 28.1,-134.39999 -4.5,-9 -15.99999,-9.6 -22.5,-2.00001 l -25.19999,29.3 c -6.60001,7.60001 -18.50002,7.4 -24.70001,-0.49998 -16.49999,-21 -45.99999,-58.5 -62.80001,-79.8 -6.29999,-8 -18.29998,-8.1 -24.69999,-0.0993 -33.80001,42.5 -50.8,69.3 -50.8,99.4 0.0994,68.5 50.7,109.1 113.8,109.1 z"
     id="path10389"
     style="stroke-width:1"
     inkscape:export-filename="/home/foxmoss/Projects/RevisionistHistory/images/quill.png"
     inkscape:export-xdpi="100"
     inkscape:export-ydpi="100" />
</svg>
