<?xml version="1.0" encoding="UTF-8" standalone="no"?>
<svg
   version="1.1"
   width="3162.2925652459976"
   height="628.5781512464858"
   viewBox="0 0 3162.2925652459976 628.5781512464858"
   id="svg10901"
   sodipodi:docname="white-logo.svg"
   inkscape:version="1.1.2 (0a00cf5339, 2022-02-04)"
   xmlns:inkscape="http://www.inkscape.org/namespaces/inkscape"
   xmlns:sodipodi="http://sodipodi.sourceforge.net/DTD/sodipodi-0.dtd"
   xmlns="http://www.w3.org/2000/svg"
   xmlns:svg="http://www.w3.org/2000/svg">
  <defs
     id="defs10905">
    <inkscape:path-effect
       effect="bspline"
       id="path-effect10208"
       is_visible="true"
       lpeversion="1"
       weight="33.333333"
       steps="2"
       helper_size="0"
       apply_no_weight="true"
       apply_with_weight="true"
       only_selected="false" />
    <inkscape:path-effect
       effect="bspline"
       id="path-effect10204"
       is_visible="true"
       lpeversion="1"
       weight="33.333333"
       steps="2"
       helper_size="0"
       apply_no_weight="true"
       apply_with_weight="true"
       only_selected="false" />
    <inkscape:path-effect
       effect="bspline"
       id="path-effect10200"
       is_visible="true"
       lpeversion="1"
       weight="33.333333"
       steps="2"
       helper_size="0"
       apply_no_weight="true"
       apply_with_weight="true"
       only_selected="false" />
    <inkscape:path-effect
       effect="bspline"
       id="path-effect10196"
       is_visible="true"
       lpeversion="1"
       weight="33.333333"
       steps="2"
       helper_size="0"
       apply_no_weight="true"
       apply_with_weight="true"
       only_selected="false" />
    <rect
       x="650.22839"
       y="418.77219"
       width="2177.8523"
       height="143.54552"
       id="rect8393" />
    <rect
       x="606.49347"
       y="481.33746"
       width="2089.8474"
       height="89.255173"
       id="rect3217" />
  </defs>
  <sodipodi:namedview
     id="namedview10903"
     pagecolor="#505050"
     bordercolor="#eeeeee"
     borderopacity="1"
     inkscape:pageshadow="0"
     inkscape:pageopacity="0"
     inkscape:pagecheckerboard="0"
     showgrid="false"
     inkscape:zoom="0.15963682"
     inkscape:cx="945.89706"
     inkscape:cy="996.01081"
     inkscape:window-width="1346"
     inkscape:window-height="688"
     inkscape:window-x="10"
     inkscape:window-y="70"
     inkscape:window-maximized="1"
     inkscape:current-layer="svg10901" />
  <path
     d="m 606.84858,335.68557 v -23.28501 q 2.82234,-17.46325 8.11424,-28.39984 12.34775,-30.34018 33.16253,-44.4519 20.81479,-14.11172 34.57439,-14.11172 10.23099,0 21.87316,6.70307 l -12.87693,20.81399 q -16.40487,-5.99748 -32.54515,9.70181 -16.14028,15.69929 -22.31503,34.22035 -4.58631,16.40487 -4.58631,61.56236 v 65.44224 h -25.40199 v -88.198 z m 275.18,19.75731 20.81399,11.1129 q -10.05458,20.28559 -23.63711,32.63335 -13.58252,12.34774 -30.51743,18.78552 -16.93491,6.43776 -38.2773,6.43855 -47.27426,0 -73.91013,-30.95759 -26.63586,-30.95758 -26.63569,-69.94174 0,-36.86685 22.57874,-65.61947 28.57623,-36.69047 76.73247,-36.69047 49.21461,0 78.84921,37.57245 20.99118,26.45947 21.16758,65.97228 H 735.44313 q 0.70559,33.86812 21.52037,55.47669 20.81478,21.60856 51.33142,21.60876 14.81731,0 28.75262,-5.20369 13.93534,-5.2037 23.72575,-13.6708 9.79044,-8.46711 21.25654,-27.51718 z m 0,-52.03769 q -4.93909,-19.93281 -14.4645,-31.83956 -9.52542,-11.90677 -25.22498,-19.22807 -15.69956,-7.3213 -32.98665,-7.32039 -28.39982,0 -48.86182,18.34524 -14.8173,13.40612 -22.40235,40.042 h 143.94043 z m 55.20988,-72.32244 h 26.45868 l 64.73776,140.76494 64.2086,-140.76494 h 26.6357 l -88.5503,193.5089 h -4.4099 z m 228.60944,-79.9107 q 8.467,0 14.5527,5.99748 6.0857,5.99748 6.0856,14.46448 -10e-5,8.46701 -6.0856,14.55264 -6.0855,6.08563 -14.5526,6.0856 -8.4671,-2e-5 -14.4645,-6.0856 -5.9974,-6.08558 -5.9975,-14.55264 0,-8.46705 5.9975,-14.46448 5.9975,-5.99744 14.4645,-5.99746 z M 1153.5,230.72149 h 24.8728 v 193.5089 H 1153.5 Z m 173.5753,16.58183 -15.8758,16.58129 q -20.1092,-19.40361 -38.9836,-19.40361 -12.1713,0 -20.8148,7.93784 -8.6434,7.93785 -8.6435,18.87402 0,9.17263 7.2323,17.63966 7.0558,8.99622 29.811,20.63838 27.8706,14.28812 37.7488,27.69424 9.7018,13.58253 9.7018,30.51659 0,23.63713 -16.6694,40.1302 -16.6695,16.49307 -41.7183,16.49314 -16.7577,0 -32.016,-7.14406 -15.2583,-7.14406 -25.1364,-20.02102 l 15.6992,-17.81608 q 19.0508,21.52036 40.3948,21.52036 14.8173,0 25.3129,-9.61359 10.4956,-9.61362 10.4955,-22.49024 0,-10.76018 -6.8794,-19.05083 -6.8795,-8.29063 -31.2219,-20.81399 -26.2831,-13.22974 -35.6321,-26.63586 -9.5254,-13.05333 -9.5254,-29.9874 0,-22.04956 15.0819,-36.60227 15.0819,-14.55271 37.8365,-14.55263 26.6359,0 53.8009,26.10667 z m 52.5651,-96.13127 q 8.4671,0 14.5527,5.99748 6.0857,5.99748 6.0856,14.46448 0,8.46701 -6.0856,14.55264 -6.0855,6.08563 -14.5526,6.0856 -8.4671,-2e-5 -14.4645,-6.0856 -5.9974,-6.08558 -5.9974,-14.55264 -10e-5,-8.46705 5.9974,-14.46448 5.9975,-5.99744 14.4645,-5.99746 z m -12.3478,79.54944 h 24.8727 v 193.5089 h -24.8727 z m 167.7535,-9.5192 q 44.6283,0 74.0865,32.28055 26.6359,29.6346 26.6359,70.02939 0,40.39481 -28.2234,70.64619 -28.2235,30.2514 -72.4995,30.25193 -44.4519,0 -72.5872,-30.252 -28.1352,-30.252 -28.1349,-70.64619 0,-40.21841 26.6359,-69.85301 29.4582,-32.45695 74.0865,-32.45695 z m 0,24.34892 q -30.8694,0 -53.0953,22.93154 -22.226,22.93155 -22.2266,55.38837 0,20.99119 10.1429,39.24823 10.1427,18.25703 27.4304,28.04641 17.2877,9.78939 37.7481,9.78997 20.8147,0 38.0134,-9.79 17.1987,-9.79002 27.2535,-28.04642 10.0547,-18.25642 10.0546,-39.24909 0,-32.45695 -22.226,-55.3885 -22.226,-22.93154 -53.0962,-22.93097 z m 146.4083,105.30547 -0.3527,-20.63878 q -0.5293,-15.1701 1.2347,-25.75388 3.8808,-33.33893 16.9341,-48.86182 12.7006,-13.58253 25.9303,-20.99118 21.8731,-9.34902 49.9202,-8.81983 21.8731,0 40.483,11.02478 18.6098,11.02478 26.5472,29.63417 7.9373,18.60936 7.9377,58.29832 v 99.48738 h -24.6957 v -92.25495 q 0,-33.51534 -2.8223,-44.80471 -4.4099,-19.22721 -17.4633,-27.25325 -13.0533,-8.02605 -38.6313,-8.02612 -22.5788,0 -40.2184,13.05334 -17.6396,13.05333 -16.4048,35.63287 -3.3516,14.46451 -3.3516,52.74255 v 70.91172 h -25.0479 v -73.38093 z m 318.5721,-194.57281 h 25.0479 v 109.54306 q 14.9937,-19.9328 33.0744,-29.81101 18.0806,-9.8782 39.249,-9.87829 21.8732,0 38.6309,11.02478 16.7576,11.02478 24.6957,29.54565 7.9381,18.52086 7.9378,58.38683 v 99.48738 h -24.6957 v -92.25495 q 0,-33.51534 -2.8224,-44.80471 -4.5863,-19.22721 -16.7577,-28.84083 -12.1713,-9.6136 -31.9281,-9.61366 -22.5788,0 -40.483,14.90551 -17.9043,14.90549 -23.5487,36.95508 -3.3516,14.11172 -3.3516,52.74255 v 70.91172 h -25.0479 V 156.2752 Z m 230.3741,-5.11182 q 8.467,0 14.5527,5.99748 6.0857,5.99748 6.0856,14.46448 -1e-4,8.46701 -6.0856,14.55264 -6.0856,6.08563 -14.5527,6.0856 -8.4671,-2e-5 -14.4644,-6.0856 -5.9974,-6.08558 -5.9975,-14.55264 -1e-4,-8.46705 5.9975,-14.46448 5.9975,-5.99744 14.4644,-5.99746 z m -12.3479,79.54944 h 24.8728 v 193.5089 h -24.8728 z m 173.5753,16.58183 -15.8758,16.58129 Q 2355.643,244.481 2336.7686,244.481 q -12.1714,0 -20.8148,7.93784 -8.6434,7.93785 -8.6435,18.87402 0,9.17263 7.2322,17.63966 7.0559,8.99622 29.8111,20.63838 27.8706,14.28812 37.7488,27.69424 9.7018,13.58253 9.7018,30.51659 0,23.63713 -16.6695,40.1302 -16.6694,16.49307 -41.7183,16.49314 -16.7576,0 -32.0159,-7.14406 -15.2583,-7.14406 -25.1365,-20.02102 l 15.6993,-17.81608 q 19.0508,21.52036 40.3948,21.52036 14.8173,0 25.3129,-9.61359 10.4956,-9.61362 10.4955,-22.49024 0,-10.76018 -6.8795,-19.05083 -6.8795,-8.29063 -31.2219,-20.81399 -26.2831,-13.22974 -35.6321,-26.63586 -9.5254,-13.05333 -9.5254,-29.9874 0,-22.04956 15.0819,-36.60227 15.0819,-14.55271 37.8366,-14.55263 26.6359,0 53.8009,26.10667 z m 113.5981,149.59233 q -18.3451,9.8782 -35.9849,1.58756 -21.5202,-16.40489 -20.4619,-46.74507 v -81.84886 h 45.8637 v -21.34322 h -46.0389 v -93.49047 h -25.048 v 200.91473 q -0.3522,21.16757 9.7018,38.80723 16.5813,28.04703 45.1575,29.63461 15.17,0.52924 34.5737,-6.87948 -2.9987,-7.40865 -7.7613,-20.63838 z m 138.8247,-175.69336 q 44.6282,0 74.0864,32.28055 26.6359,29.6346 26.6359,70.02939 0,40.39481 -28.2234,70.64619 -28.2235,30.2514 -72.4995,30.25193 -44.4519,0 -72.5872,-30.252 -28.1351,-30.252 -28.135,-70.64619 0,-40.21841 26.6359,-69.85301 29.4582,-32.45695 74.0865,-32.45695 z m 0,24.34892 q -30.8695,0 -53.0955,22.93154 -22.226,22.93155 -22.2265,55.38837 0,20.99119 10.1429,39.24823 10.1427,18.25703 27.4305,28.04641 17.2875,9.78939 37.748,9.78997 20.8147,0 38.0134,-9.79 17.1987,-9.79002 27.2535,-28.04642 10.0547,-18.25642 10.0545,-39.24909 0,-32.45695 -22.2259,-55.3885 -22.226,-22.93154 -53.0962,-22.93097 z m 137.0605,90.13436 v -23.28501 q 2.8224,-17.46325 8.1143,-28.39984 12.3479,-30.34018 33.1626,-44.4519 20.8147,-14.11172 34.5744,-14.11172 10.231,0 21.8732,6.70307 l -12.877,20.81399 q -16.405,-5.99748 -32.5451,9.70181 -16.1404,15.69929 -22.3151,34.22035 -4.5864,16.40487 -4.5864,61.56236 v 65.44224 h -25.4019 v -88.198 z m 98.0758,-109.53402 h 26.2835 l 66.5007,149.05586 64.5608,-149.05586 h 26.6357 l -115.54,264.06297 h -26.2835 l 37.2188,-85.19955 z"
     id="path1192"
     style="stroke-width:18.063;stroke:#f7f7f7;stroke-opacity:1;fill:#fcfcfc;fill-opacity:1" />
  <text
     xml:space="preserve"
     transform="translate(-17.978897,5.1087352)"
     id="text3215"
     style="font-style:normal;font-weight:normal;font-size:40px;line-height:1.25;font-family:sans-serif;white-space:pre;shape-inside:url(#rect3217);fill:#fcfcfc;fill-opacity:1;stroke:#f7f7f7;stroke-opacity:1" />
  <text
     xml:space="preserve"
     transform="translate(-25.444397,53.878145)"
     id="text8391"
     style="font-style:normal;font-weight:normal;font-size:96px;line-height:1.25;font-family:sans-serif;white-space:pre;shape-inside:url(#rect8393);fill:#fcfcfc;fill-opacity:1;stroke:#f7f7f7;stroke-opacity:1"><tspan
       x="650.22852"
       y="503.70898"
       id="tspan11477">&quot;Yeah that just happened&quot;</tspan></text>
  <path
     style="fill:#fcfcfc;stroke:#f7f7f7;stroke-width:20.0001;stroke-linecap:butt;stroke-linejoin:miter;stroke-miterlimit:4;stroke-dasharray:none;stroke-opacity:1;fill-opacity:1"
     d="m 1839.2414,197.41347 c 17.6775,40.84488 35.3544,81.68851 53.0309,122.53099"
     id="path10194"
     inkscape:path-effect="#path-effect10196"
     inkscape:original-d="m 1839.2414,197.41347 c 17.678,40.84466 35.3549,81.68831 53.0309,122.53099" />
  <path
     style="fill:#fcfcfc;stroke:#f7f7f7;stroke-width:20.0001;stroke-linecap:butt;stroke-linejoin:miter;stroke-miterlimit:4;stroke-dasharray:none;stroke-opacity:1;fill-opacity:1"
     d="m 1907.8744,187.09318 c -14.0876,18.08692 -28.175,36.17365 -20.8735,52.00376 7.3016,15.83012 35.9897,29.40257 46.358,46.49546 10.3684,17.09289 2.4181,37.70516 -5.5322,58.31731"
     id="path10198"
     inkscape:path-effect="#path-effect10200"
     inkscape:original-d="m 1907.8744,187.09318 c -14.0865,18.08776 -28.1739,36.17453 -42.2624,54.26029 28.6903,13.57401 57.3784,27.14647 86.0661,40.71821 -7.9496,20.61408 -15.8999,41.22636 -23.8514,61.83803" />
  <path
     style="fill:#fcfcfc;stroke:#f7f7f7;stroke-width:20.0001;stroke-linecap:butt;stroke-linejoin:miter;stroke-miterlimit:4;stroke-dasharray:none;stroke-opacity:1;fill-opacity:1"
     d="m 1926.4015,153.23282 c 25.4025,56.0696 50.8045,112.13795 76.2059,168.20513"
     id="path10202"
     inkscape:path-effect="#path-effect10204"
     inkscape:original-d="m 1926.4015,153.23282 c 25.403,56.06938 50.8049,112.13776 76.2059,168.20513" />
  <path
     style="fill:#fcfcfc;stroke:#f7f7f7;stroke-width:20.0001;stroke-linecap:butt;stroke-linejoin:miter;stroke-miterlimit:4;stroke-dasharray:none;stroke-opacity:1;fill-opacity:1"
     d="m 1923.7098,216.84233 c 18.4301,-15.0619 36.8601,-30.12371 55.29,-45.18543"
     id="path10206"
     inkscape:path-effect="#path-effect10208"
     inkscape:original-d="m 1923.7098,216.84233 c 18.431,-15.06081 36.861,-30.12262 55.29,-45.18543" />
  <path
     d="m 209.4001,52.735705 c 7.8,-7.3 19.9,-7.200001 27.7,0.100069 27.6,25.9 53.49999,53.800006 77.69999,84.000006 11,-14.4 23.49999,-30.1 37.00001,-42.900006 7.89999,-7.400001 20.09999,-7.400001 27.99999,0.100069 34.6,33.000007 63.9,76.600007 84.50001,118.000007 20.29999,40.8 33.79999,82.50001 33.79999,111.90001 0,127.6 -99.8,235.40001 -223.99999,235.40001 -125.6,0 -223.999997,-107.90001 -223.999997,-235.50001 0,-38.40001 17.8,-85.30001 45.4,-131.70001 C 123.4001,145.03585 162.8001,95.935845 209.4001,52.735844 Z m 66.4,410.600005 c 25.3,0 47.69999,-6.99999 68.79999,-21 42.09999,-29.39999 53.40001,-88.2 28.1,-134.4 -4.5,-8.99999 -15.99999,-9.59999 -22.5,-2.00001 l -25.19999,29.30001 c -6.60001,7.60001 -18.50002,7.4 -24.70001,-0.49998 -16.49999,-21.00001 -45.99999,-58.5 -62.79999,-79.8 -6.3,-8 -18.3,-8.1 -24.7,-0.0993 -33.8,42.49999 -50.8,69.29999 -50.8,99.39999 0.099,68.5 50.7,109.1 113.8,109.1 z"
     id="path10389"
     style="stroke-width:1;stroke:#f7f7f7;stroke-opacity:1;fill:#fcfcfc;fill-opacity:1" />
</svg>
